<?xml version="1.0" encoding="utf-8"?>
<!-- Generator: Adobe Illustrator 23.0.3, SVG Export Plug-In . SVG Version: 6.00 Build 0)  -->
<svg version="1.1" id="Layer_1" xmlns="http://www.w3.org/2000/svg" xmlns:xlink="http://www.w3.org/1999/xlink" x="0px" y="0px"
	 viewBox="0 0 806 598.9" style="enable-background:new 0 0 806 598.9;" xml:space="preserve">
<style type="text/css">
	.st0{fill:none;}
	.st1{fill:#B3B3B3;}
	.st2{fill:#0D0E13;}
	.st3{opacity:6.000000e-02;fill:#FFFFFF;enable-background:new    ;}
	.st4{fill:#13161F;}
	.st5{fill:#0F1015;}
	.st6{fill:#FDB913;}
	.st7{fill:#080808;}
	.st8{fill:none;stroke:#FDB913;stroke-width:2;stroke-miterlimit:10;}
	.st9{opacity:0.12;}
	.st10{fill:#FFFFFF;}
	.st11{fill:#0B0B0F;}
	.st12{fill:url(#SVGID_1_);}
	.st13{fill:#050505;stroke:#000000;stroke-width:2;stroke-miterlimit:10;}
	.st14{enable-background:new    ;}
	.st15{fill:#0A0A0A;}
	.st16{fill:#121212;}
	.st17{opacity:0;}
	.st18{fill:#CCCCCC;}
	.st19{fill:#231F20;}
</style>
<pattern  y="598.9" width="71" height="71" patternUnits="userSpaceOnUse" id="f" viewBox="0 -71 71 71" style="overflow:visible;">
	<g>
		<rect y="-71" class="st0" width="71" height="71"/>
		<path class="st0" d="M0-71h71V0H0V-71z"/>
		<path class="st0" d="M0-71h71V0H0V-71z"/>
		<path class="st1" d="M41.8-35.5c0,3.5-2.8,6.3-6.3,6.3s-6.3-2.8-6.3-6.3s2.8-6.3,6.3-6.3S41.8-39,41.8-35.5z"/>
	</g>
</pattern>
<path class="st2" d="M801.3,418.6c-2.9-15.5-17.7-102.5-32-144.6c-9.4-27.7-13.1-53-17-64.9c-12-35.7-33-65.7-33-65.7
	s-9.5-13.1-10.1-16.3c-0.6-3.3-4.7-8.6-4.7-8.6s-17.4-5.7-62.3-5.7s-53.7,5-53.7,5s-2.4,2.9-5.9,4.8c-3.5,1.8-11.7,1.7-11.7,1.7
	h-33.4c0,0-0.6-0.1-0.9,0.3c-0.4,0.4-0.6,2-0.6,2H269.9c0,0-0.3-1.7-0.6-2c-0.4-0.4-0.9-0.3-0.9-0.3H235c0,0-8.2,0.2-11.7-1.7
	c-3.5-1.8-5.9-4.8-5.9-4.8s-8.8-5-53.7-5c-44.8,0-62.3,5.7-62.3,5.7s-4.1,5.3-4.7,8.6c-0.6,3.3-10.1,16.3-10.1,16.3s-21,30-33,65.7
	c-4,11.9-7.7,37.2-17,64.9c-14.3,42.1-29.1,129.1-32,144.6C0.3,441.8,0,508.8,0,508.8s4.5,53.4,36.2,74.9s56.7,14,56.7,14
	s33.1-8.2,57.8-41.9s56.6-129.2,56.6-129.2s2.2-3,5.7-5.3s6.3-2.6,6.3-2.6l183.7,0.1l183.7-0.1c0,0,2.8,0.3,6.3,2.6s5.7,5.3,5.7,5.3
	s31.9,95.4,56.6,129.2s57.8,41.9,57.8,41.9s25,7.5,56.7-14s36.2-74.9,36.2-74.9S805.7,441.8,801.3,418.6z"/>
<path class="st3" d="M36.6,276c9.4-27.7,13.1-53,17-64.9c12-35.7,33-65.7,33-65.7s9.5-13.1,10.1-16.3c0.6-3.3,4.7-8.6,4.7-8.6
	s17.4-5.7,62.3-5.7c44.8,0,53.7,5,53.7,5s2.4,2.9,5.9,4.8c3.5,1.8,11.7,1.7,11.7,1.7h33.4c0,0,0.6-0.1,0.9,0.3c0.4,0.4,0.6,2,0.6,2
	h266.2c0,0,0.3-1.7,0.6-2c0.4-0.4,0.9-0.3,0.9-0.3H571c0,0,8.2,0.2,11.7-1.7c3.5-1.8,5.9-4.8,5.9-4.8s8.8-5,53.7-5
	s62.3,5.7,62.3,5.7s4.1,5.3,4.7,8.6c0.6,3.3,10.1,16.3,10.1,16.3s21,30,33,65.7c4,11.9,7.7,37.2,17,64.9
	c14.3,42.1,29.1,129.1,32,144.6c3.9,20.9,4.6,77.3,4.7,88.3v-0.1c0,0-0.3-66.9-4.7-90.1c-2.9-15.5-17.7-102.5-32-144.6
	c-9.4-27.7-13.1-53-17-64.9c-12-35.7-33-65.7-33-65.7s-9.5-13.1-10.1-16.3c-0.6-3.3-4.7-8.6-4.7-8.6s-17.4-5.7-62.3-5.7
	s-53.7,5-53.7,5s-2.4,2.9-5.9,4.8c-3.5,1.8-11.7,1.7-11.7,1.7h-33.4c0,0-0.6-0.1-0.9,0.3c-0.4,0.4-0.6,2-0.6,2H269.9
	c0,0-0.3-1.7-0.6-2c-0.4-0.4-0.9-0.3-0.9-0.3H235c0,0-8.2,0.2-11.7-1.7c-3.5-1.8-5.9-4.8-5.9-4.8s-8.8-5-53.7-5
	c-44.8,0-62.3,5.7-62.3,5.7s-4.1,5.3-4.7,8.6c-0.6,3.3-10.1,16.3-10.1,16.3s-21,30-33,65.7c-4,11.9-7.7,37.2-17,64.9
	c-14.3,42.1-29.1,129.1-32,144.6C0.3,441.8,0,508.8,0,508.8v0.1c0.1-10.9,0.7-67.4,4.7-88.3C7.6,405.2,22.3,318.1,36.6,276L36.6,276
	z"/>
<path class="st4" d="M351.2,360c0-42.2-34.3-76.5-76.5-76.5s-76.5,34.3-76.5,76.5c0,0.7,0,1.3,0.1,2c0,0.7-0.1,1.3-0.1,2
	c0,42.2,34.3,76.5,76.5,76.5s76.5-34.3,76.5-76.5c0-0.7,0-1.3-0.1-2C351.1,361.3,351.2,360.6,351.2,360L351.2,360z"/>
<circle class="st5" cx="274.7" cy="356" r="73"/>
<circle cx="274.7" cy="356" r="51.5"/>
<path class="st4" d="M607.8,360c0-42.2-34.3-76.5-76.5-76.5s-76.5,34.3-76.5,76.5c0,0.7,0,1.3,0.1,2c0,0.7-0.1,1.3-0.1,2
	c0,42.2,34.3,76.5,76.5,76.5s76.5-34.3,76.5-76.5c0-0.7,0-1.3-0.1-2C607.8,361.3,607.8,360.6,607.8,360L607.8,360z"/>
<circle class="st5" cx="531.3" cy="356" r="73"/>
<circle cx="531.3" cy="356" r="51.5"/>
<path class="st6" d="M534.8,128c-0.4-3.2-3.3-5.6-6.5-5.6H277.7c-3.2,0-6.1,2.3-6.5,5.6c-0.1,0.7-0.1,1.4-0.1,2.1v127.4
	c0,8.9,7.2,16.1,16.1,16.1h231.6c8.9,0,16.1-7.2,16.1-16.1V130.1C535,129.4,534.9,128.7,534.8,128L534.8,128z"/>
<circle class="st7" cx="652.3" cy="244.8" r="94.3"/>
<circle class="st7" cx="153.7" cy="244.8" r="94.3"/>
<path class="st8" d="M230.4,254.1l9.5-8.9c0.5-0.5,0.5-1.2,0-1.7l-9.5-8.9c-0.7-0.7-1.9-0.2-1.9,0.8v17.8
	C228.4,254.2,229.6,254.7,230.4,254.1L230.4,254.1z M145,169.8h17.8c1,0,1.5-1.2,0.8-1.9l-8.9-9.5c-0.5-0.5-1.2-0.5-1.7,0l-8.9,9.5
	C143.5,168.6,144,169.8,145,169.8L145,169.8z M77.5,234.6l-9.5,8.9c-0.5,0.5-0.5,1.2,0,1.7l9.5,8.9c0.7,0.7,1.9,0.2,1.9-0.8v-17.8
	C79.4,234.4,78.2,233.9,77.5,234.6L77.5,234.6z M162.8,318.8H145c-1,0-1.5,1.2-0.8,1.9l8.9,9.5c0.5,0.5,1.2,0.5,1.7,0l8.9-9.5
	C164.3,320,163.8,318.8,162.8,318.8z"/>
<g>
	<g>
		<path class="st6" d="M240.5,143.5c6.9,0,12.5,5.6,12.5,12.5v18.3c0,6.9-5.6,12.5-12.5,12.5s-12.5-5.6-12.5-12.5V156
			C228,149.1,233.6,143.5,240.5,143.5 M240.5,141.8c-7.8,0-14.2,6.4-14.2,14.2v18.3c0,7.8,6.4,14.2,14.2,14.2s14.2-6.4,14.2-14.2
			V156C254.7,148.1,248.3,141.8,240.5,141.8z"/>
		<path class="st6" d="M240.5,143.5c-6.9,0-12.5,5.6-12.5,12.5v18.3c0,6.9,5.6,12.5,12.5,12.5s12.5-5.6,12.5-12.5V156
			C253,149.1,247.4,143.5,240.5,143.5L240.5,143.5z"/>
	</g>
	<g>
		<path class="st6" d="M565.5,143.5c6.9,0,12.5,5.6,12.5,12.5v18.3c0,6.9-5.6,12.5-12.5,12.5s-12.5-5.6-12.5-12.5V156
			C553,149.1,558.6,143.5,565.5,143.5 M565.5,141.8c-7.8,0-14.2,6.4-14.2,14.2v18.3c0,7.8,6.4,14.2,14.2,14.2s14.2-6.4,14.2-14.2
			V156C579.7,148.1,573.3,141.8,565.5,141.8z"/>
		<path class="st6" d="M565.5,143.5c-6.9,0-12.5,5.6-12.5,12.5v18.3c0,6.9,5.6,12.5,12.5,12.5s12.5-5.6,12.5-12.5V156
			C578,149.1,572.4,143.5,565.5,143.5L565.5,143.5z"/>
	</g>
</g>
<g>
	<circle cx="403" cy="316.4" r="4.1"/>
	<circle cx="403" cy="295.5" r="4.1"/>
	<circle cx="396.1" cy="305.7" r="4.1"/>
	<circle cx="381.4" cy="305.7" r="4.1"/>
	<circle cx="388.7" cy="316.4" r="4.1"/>
	<circle cx="388.7" cy="295.5" r="4.1"/>
	<circle cx="374.4" cy="295.5" r="4.1"/>
	<g>
		<circle cx="409.9" cy="305.7" r="4.1"/>
		<circle cx="424.6" cy="305.7" r="4.1"/>
		<ellipse transform="matrix(0.1602 -0.9871 0.9871 0.1602 38.0574 677.5311)" cx="417.2" cy="316.4" rx="4.1" ry="4.1"/>
		<ellipse transform="matrix(0.1602 -0.9871 0.9871 0.1602 58.6876 659.9789)" cx="417.2" cy="295.5" rx="4.1" ry="4.1"/>
		<circle cx="431.6" cy="295.5" r="4.1"/>
	</g>
</g>
<g class="st9">
	<path class="st10" d="M403,319.5c-2.1,0-3.8-1.6-4.1-3.6c0,0.2-0.1,0.3-0.1,0.5c0,2.3,1.8,4.1,4.1,4.1s4.1-1.8,4.1-4.1
		c0-0.2,0-0.3-0.1-0.5C406.8,317.9,405.1,319.5,403,319.5z M403,299.6c2.3,0,4.1-1.8,4.1-4.1c0-0.2,0-0.3-0.1-0.5
		c-0.2,2-2,3.6-4.1,3.6s-3.8-1.6-4.1-3.6c0,0.2-0.1,0.3-0.1,0.5C398.9,297.7,400.7,299.6,403,299.6L403,299.6z M400.2,305.7
		c0-0.2,0-0.3-0.1-0.5c-0.2,2-2,3.6-4.1,3.6s-3.8-1.6-4.1-3.6c0,0.2-0.1,0.3-0.1,0.5c0,2.3,1.8,4.1,4.1,4.1
		C398.3,309.8,400.2,308,400.2,305.7L400.2,305.7z M385.4,305.2c-0.2,2-2,3.6-4.1,3.6s-3.8-1.6-4.1-3.6c0,0.2-0.1,0.3-0.1,0.5
		c0,2.3,1.8,4.1,4.1,4.1s4.1-1.8,4.1-4.1C385.5,305.5,385.5,305.4,385.4,305.2z M388.8,319.5c-2.1,0-3.8-1.6-4.1-3.6
		c0,0.2-0.1,0.3-0.1,0.5c0,2.3,1.8,4.1,4.1,4.1s4.1-1.8,4.1-4.1c0-0.2,0-0.3-0.1-0.5C392.6,317.9,390.9,319.5,388.8,319.5z
		 M388.8,299.6c2.3,0,4.1-1.8,4.1-4.1c0-0.2,0-0.3-0.1-0.5c-0.2,2-2,3.6-4.1,3.6s-3.8-1.6-4.1-3.6c0,0.2-0.1,0.3-0.1,0.5
		C384.6,297.7,386.5,299.6,388.8,299.6L388.8,299.6z M378.6,295.5c0-0.2,0-0.3-0.1-0.5c-0.2,2-2,3.6-4.1,3.6s-3.8-1.6-4.1-3.6
		c0,0.2-0.1,0.3-0.1,0.5c0,2.3,1.8,4.1,4.1,4.1C376.7,299.6,378.6,297.7,378.6,295.5L378.6,295.5z M414,305.2c-0.2,2-2,3.6-4.1,3.6
		s-3.8-1.6-4.1-3.6c0,0.2-0.1,0.3-0.1,0.5c0,2.3,1.8,4.1,4.1,4.1s4.1-1.8,4.1-4.1C414.1,305.5,414,305.4,414,305.2z M424.6,308.8
		c-2.1,0-3.8-1.6-4.1-3.6c0,0.2-0.1,0.3-0.1,0.5c0,2.3,1.8,4.1,4.1,4.1s4.1-1.8,4.1-4.1c0-0.2,0-0.3-0.1-0.5
		C428.5,307.3,426.7,308.8,424.6,308.8z M417.3,319.5c-2.1,0-3.8-1.6-4.1-3.6c0,0.2-0.1,0.3-0.1,0.5c0,2.3,1.8,4.1,4.1,4.1
		s4.1-1.8,4.1-4.1c0-0.2,0-0.3-0.1-0.5C421.1,317.9,419.4,319.5,417.3,319.5L417.3,319.5z M417.3,299.6c2.3,0,4.1-1.8,4.1-4.1
		c0-0.2,0-0.3-0.1-0.5c-0.2,2-2,3.6-4.1,3.6s-3.8-1.6-4.1-3.6c0,0.2-0.1,0.3-0.1,0.5C413.1,297.7,415,299.6,417.3,299.6z
		 M431.6,298.6c-2.1,0-3.8-1.6-4.1-3.6c0,0.2-0.1,0.3-0.1,0.5c0,2.3,1.8,4.1,4.1,4.1s4.1-1.8,4.1-4.1c0-0.2,0-0.3-0.1-0.5
		C435.4,297,433.7,298.6,431.6,298.6z"/>
</g>
<path class="st11" d="M436.6,421h-67.9c-2.8,0-4.6,0.6-4.6-2.2s2.3-5,5-5H437c2.8,0,5,2.3,5,5C442.1,421.5,439.4,421,436.6,421z"/>
<path d="M408.3,418.8h-36.5c-0.5,0-0.9-0.4-0.9-0.9c0-1.1,0.9-2,2-2h34.2c1.1,0,2,0.9,2,2C409.2,418.4,408.8,418.8,408.3,418.8
	L408.3,418.8z M430.5,419.6h-4.2c-0.9,0-1.7-0.8-1.7-1.7c0-1.6,1.3-2.8,2.8-2.8h1.9c1.6,0,2.8,1.3,2.8,2.8
	C432.2,418.9,431.5,419.6,430.5,419.6z"/>
<g>
	<path class="st7" d="M530.4,124.3c0-1-0.8-1.9-1.9-1.9H277.4c-1,0-1.9,0.8-1.9,1.9v129.2c0,8.6,7,15.6,15.6,15.6h223.8
		c8.6,0,15.6-7,15.6-15.6V130.4L530.4,124.3z"/>
	<g class="st9">
		<pattern  id="SVGID_1_" xlink:href="#f" patternTransform="matrix(0.1017 0 0 0.1017 -20886.7891 -5323.4673)"  class="st9">
		</pattern>
		<path class="st12" d="M275.5,253.5c0,8.6,7,15.6,15.6,15.6h223.8c8.6,0,15.6-7,15.6-15.6V147h-255V253.5z"/>
	</g>
</g>
<g>
	<circle class="st13" cx="403" cy="362" r="20.2"/>
	<g class="st14">
		<path class="st6" d="M404.1,368.6v-12.8c0-0.5,0.1-0.8,0.3-1c0.1-0.2,0.4-0.3,0.7-0.2c0.6,0.2,0.9,0.7,0.9,1.7v6.9
			c0.8,0.4,1.5,0.5,2.1,0.5s1.2-0.2,1.6-0.5c1-0.7,1.5-1.9,1.5-3.7c0-1.9-0.4-3.4-1.2-4.3c-0.8-1-2.1-1.9-4.1-2.6
			c-1.3-0.4-2.5-0.8-3.6-1.1c-1.1-0.3-2-0.5-2.9-0.7v20.6l4.7,1.5V368.6z M399,367.6l-1.7,0.6l-0.9,0.4l-1.6,0.3l-1.5-0.2
			c-0.3-0.2-0.4-0.4-0.2-0.6c0.1-0.1,0.2-0.1,0.3-0.2c0.1-0.1,0.3-0.1,0.4-0.2l1.1-0.4l4.1-1.5v-2.7l-1.7,0.5l-5.5,2l-1,0.4
			c-1.5,0.6-2.2,1.2-2.2,1.8c0.1,0.8,1,1.5,2.7,1.9c0.7,0.2,1.4,0.3,2.1,0.4s1.4,0.1,2.2,0.1c1,0,2.1-0.1,3.3-0.3v-2.3L399,367.6
			L399,367.6z"/>
		<path class="st6" d="M414.8,365.3c-0.9-0.3-1.7-0.5-2.5-0.6s-1.7-0.2-2.5-0.1c-0.9,0-1.9,0.2-2.8,0.3c-0.8,0.2-1.7,0.4-2.6,0.8
			v2.8l3.9-1.4l1.6-0.5l1.1-0.3h1.4c0.3,0.1,0.6,0.2,0.7,0.4c0,0.2-0.2,0.4-0.8,0.6l-1.4,0.5l-6.5,2.4v2.7l3.5-1.3l6.4-2.3l0.7-0.4
			c1.5-0.5,2.2-1.2,2.2-1.9C417.2,366.4,416.4,365.8,414.8,365.3L414.8,365.3z"/>
	</g>
</g>
<g>
	<path class="st15" d="M697.2,109.9c0-0.8-0.4-1.5-1.1-1.9c-4.5-2.9-23.4-13.6-51.5-13.6c-26.9,0-41.1,5.9-45.1,8
		c-0.8,0.4-1.2,1.2-1.2,2c0,0,9.8-2.9,47.5-2.9S697.2,109.9,697.2,109.9L697.2,109.9z"/>
	<path class="st16" d="M697.1,116.8v-6.9c0,0-13.7-8.4-51.4-8.4c-37.8,0-47.5,2.9-47.5,2.9v11c7.7-1.3,21.2-2.6,44.1-2.6
		C670.8,112.9,688.2,115.2,697.1,116.8L697.1,116.8z"/>
	<g>
		<path class="st15" d="M108.8,109.9c0-0.8,0.4-1.5,1.1-1.9c4.5-2.9,23.4-13.6,51.5-13.6c26.9,0,41.1,5.9,45.1,8
			c0.8,0.4,1.2,1.2,1.2,2c0,0-9.8-2.9-47.5-2.9S108.8,109.9,108.8,109.9L108.8,109.9z"/>
		<path class="st16" d="M108.9,116.8v-6.9c0,0,13.7-8.4,51.4-8.4c37.8,0,47.5,2.9,47.5,2.9v11c-7.7-1.3-21.2-2.6-44.1-2.6
			C135.2,112.9,117.8,115.2,108.9,116.8L108.9,116.8z"/>
	</g>
</g>
<g>
	<path class="st16" d="M697.2,90.8c0,0-32.7-3.2-50.6-3.2S598.2,90,598.2,90s3.1-44.7,4.8-52c1.6-7.3,7.7-21.3,16.9-27.9
		S631.8,0,642.6,0s25.4,6.4,34.6,21.4C686.5,36.4,697.2,90.8,697.2,90.8z"/>
	<path class="st15" d="M598.7,83.2c0,0,26.1-4.4,49-4.4c22.8,0,47.9,4.4,47.9,4.4c1,4.7,1.6,7.6,1.6,7.6s-32.7-3.2-50.6-3.2
		S598.2,90,598.2,90S598.4,87.3,598.7,83.2z"/>
	<g>
		<path class="st6" d="M648.7,65.7c-2.1,1.7-3.2,2.6-3.2,2.6c-1.2,1.2-1.9,2.7-2,4.5h9.8v-2.6H647c0.3-0.5,1-1.2,2.1-1.9
			c1.4-0.9,2.3-1.6,2.7-2.1c0.9-1,1.3-2.1,1.3-3.3c0-1.4-0.5-2.5-1.4-3.3s-2.1-1.2-3.5-1.2c-3.1,0-4.7,1.7-4.7,5h2.7
			c0-1.8,0.7-2.7,2.1-2.7c1.3,0,2,0.7,2,2.1C650.5,63.9,649.9,64.8,648.7,65.7L648.7,65.7z M631.1,67.2h3c1.5,0,2.3,0.6,2.4,1.9
			c0.1,1.2,0.2,2.5,0.3,3.8h3.3v-0.4c-0.5-0.2-0.7-0.7-0.7-1.5c0-0.2,0-0.4,0.1-0.8v-0.7c0-1.7-0.6-2.9-1.8-3.5
			c1.4-0.5,2.2-1.6,2.2-3.4c0-1.3-0.4-2.3-1.3-3c-0.8-0.7-1.9-1-3.2-1h-7.3v14.3h3V67.2z M631.1,61h3.7c1.4,0,2.1,0.6,2.1,1.9
			c0,1.3-0.8,1.9-2.3,1.9h-3.5V61L631.1,61z"/>
	</g>
	<g>
		<path class="st16" d="M108.8,90.8c0,0,32.7-3.2,50.6-3.2s48.3,2.4,48.3,2.4s-3.1-44.7-4.8-52c-1.6-7.3-7.7-21.3-16.9-27.9
			C176.9,3.4,174.2,0,163.4,0S138,6.4,128.8,21.4S108.8,90.8,108.8,90.8L108.8,90.8z"/>
		<path class="st15" d="M207.3,83.2c0,0-26.1-4.4-49-4.4c-22.8,0-47.9,4.4-47.9,4.4c-1,4.7-1.6,7.6-1.6,7.6s32.7-3.2,50.6-3.2
			s48.3,2.4,48.3,2.4S207.6,87.3,207.3,83.2z"/>
		<g>
			<path class="st6" d="M173.3,65.7c-2.1,1.7-3.2,2.6-3.2,2.6c-1.2,1.2-1.9,2.7-2,4.5h9.8v-2.6h-6.2c0.3-0.5,1-1.2,2.1-1.9
				c1.4-0.9,2.3-1.6,2.7-2.1c0.9-1,1.3-2.1,1.3-3.3c0-1.4-0.5-2.5-1.4-3.3s-2.1-1.2-3.5-1.2c-3.1,0-4.7,1.7-4.7,5h2.7
				c0-1.8,0.7-2.7,2.1-2.7c1.3,0,2,0.7,2,2.1C175.1,63.9,174.5,64.8,173.3,65.7L173.3,65.7z M164.8,70.2h-7V58.5h-3.1v14.3h10.1
				V70.2z"/>
		</g>
	</g>
</g>
<g class="st17">
	<path class="st18" d="M547.6,134.6c0,2.1-1.5,3.8-4.1,3.8s-4.1-1.7-4.1-3.8c0-2,1.5-3.8,4.1-3.8S547.6,132.5,547.6,134.6z
		 M540.9,134.6c0,1.4,0.8,2.7,2.6,2.7s2.6-1.4,2.6-2.7c0-1.4-0.8-2.7-2.6-2.7S540.9,133.2,540.9,134.6z M548.9,131h3.8
		c2.4,0,2.9,1.3,2.9,2.2s-0.5,2.2-2.9,2.2h-2.3v2.8h-1.5V131z M550.4,134.4h2.2c0.7,0,1.5-0.3,1.5-1.2s-0.7-1.2-1.5-1.2h-2.2V134.4z
		 M556.1,131h6.9v1.1h-2.7v6.1h-1.5V132h-2.7V131L556.1,131z M564.1,131h1.5v7.2h-1.5V131z M575.1,134.6c0,2.1-1.5,3.8-4.1,3.8
		s-4.1-1.7-4.1-3.8c0-2,1.5-3.8,4.1-3.8S575.1,132.5,575.1,134.6z M568.4,134.6c0,1.4,0.8,2.7,2.6,2.7s2.6-1.4,2.6-2.7
		c0-1.4-0.8-2.7-2.6-2.7S568.4,133.2,568.4,134.6z M576.5,131h1.6l3.9,5.3V131h1.4v7.2h-1.6l-3.9-5.3v5.3h-1.4V131z M586.2,135.8
		c0,1.1,1,1.5,2.2,1.5c1.3,0,1.8-0.6,1.8-1.1c0-0.6-0.4-0.8-0.7-0.9c-0.6-0.2-1.4-0.3-2.6-0.6c-1.5-0.3-1.9-1.1-1.9-1.8
		c0-1.5,1.6-2.1,3.1-2.1c1.8,0,3.3,0.8,3.3,2.3h-1.5c-0.1-0.9-0.8-1.3-1.8-1.3c-0.7,0-1.6,0.2-1.6,0.9c0,0.5,0.4,0.8,1,0.9
		c0.1,0,2,0.4,2.5,0.6c1.1,0.3,1.7,1.1,1.7,1.8c0,1.6-1.7,2.3-3.4,2.3c-2,0-3.5-0.8-3.6-2.6h1.5V135.8L586.2,135.8z"/>
	<g>
		<path class="st18" d="M222.2,135.8c0,1.1,1,1.5,2.2,1.5c1.3,0,1.8-0.6,1.8-1.1c0-0.6-0.4-0.8-0.7-0.9c-0.6-0.2-1.4-0.3-2.6-0.6
			c-1.5-0.3-1.9-1.1-1.9-1.8c0-1.5,1.6-2.1,3.1-2.1c1.8,0,3.3,0.8,3.3,2.3h-1.5c-0.1-0.9-0.8-1.3-1.8-1.3c-0.7,0-1.6,0.2-1.6,0.9
			c0,0.5,0.4,0.8,1,0.9c0.1,0,2,0.4,2.5,0.6c1.1,0.3,1.7,1.1,1.7,1.8c0,1.6-1.7,2.3-3.4,2.3c-2,0-3.5-0.8-3.6-2.6h1.5V135.8
			L222.2,135.8z M228.9,131h1.5v2.9h3.9V131h1.5v7.2h-1.5V135h-3.9v3.2h-1.5V131z M239.9,131h1.6l3.3,7.2h-1.6l-0.8-1.9H239
			l-0.8,1.9h-1.5L239.9,131L239.9,131z M239.4,135.3h2.6l-1.3-3.1L239.4,135.3L239.4,135.3z M245.6,131h4.1c1.9,0,2.8,0.7,2.8,1.9
			c0,1.4-1.1,1.7-1.4,1.8c0.5,0.1,1.3,0.4,1.3,1.5c0,0.8,0.1,1.6,0.5,1.9h-1.6c-0.2-0.3-0.2-0.7-0.2-1.1c0-1.3-0.3-1.9-1.7-1.9h-2.2
			v3h-1.5L245.6,131L245.6,131L245.6,131z M247.1,134.2h2.5c1,0,1.5-0.4,1.5-1.1c0-0.9-0.7-1.1-1.5-1.1h-2.4v2.2L247.1,134.2
			L247.1,134.2z M254.1,131h6.2v1.1h-4.7v1.9h4.3v1h-4.3v2.1h4.7v1.1h-6.2V131L254.1,131z"/>
	</g>
</g>
<path class="st19" d="M314.8,235.5l-22.9-39.7l22.9-39.7h45.9l22.9,39.7l-22.9,39.7H314.8z"/>
<path class="st6" d="M319.2,227.8l-18.5-32.1l18.5-32.1h37l18.5,32.1l-18.5,32.1H319.2z"/>
<path class="st10" d="M319.6,227.2h36.3l18.1-31.4l-18.1-31.4h-36.3l-18.1,31.4L319.6,227.2z M356.6,228.5h-37.8l-18.9-32.8l0.2-0.3
	l18.7-32.4h37.8l0.2,0.3l18.7,32.4L356.6,228.5z"/>
<path class="st19" d="M332.4,180.8H343l5.7-14.2l15.3,31.1l-16.6,9.8l-5.3,17.4h-8.7l-5.3-17.5l-16.6-9.8l15.3-31.1L332.4,180.8z"/>
<path class="st10" d="M334.6,199.9l-7.8-8.4v8.4H334.6z M348.7,191.6v8.4h-7.8L348.7,191.6z"/>
</svg>
