<svg xmlns="http://www.w3.org/2000/svg" width="28.4" height="46.7" viewBox="-291 373.3 28.4 46.7"><path fill="#FFF" d="M-276.8 375c6.9 0 12.5 5.6 12.5 12.5v18.3c0 6.9-5.6 12.5-12.5 12.5s-12.5-5.6-12.5-12.5v-18.3c0-6.9 5.6-12.5 12.5-12.5m0-1.7c-7.8 0-14.2 6.4-14.2 14.2v18.3c0 7.8 6.4 14.2 14.2 14.2 7.8 0 14.2-6.4 14.2-14.2v-18.3c0-7.8-6.4-14.2-14.2-14.2z"/><path fill="#EFEEE5" d="M-276.8 375c-6.9 0-12.5 5.6-12.5 12.5v18.3c0 6.9 5.6 12.5 12.5 12.5s12.5-5.6 12.5-12.5v-18.3c0-6.9-5.6-12.5-12.5-12.5z"/></svg>